<?xml version="1.0" encoding="UTF-8"?>
<svg width="228px" height="228px" viewBox="0 0 228 228" version="1.1" xmlns="http://www.w3.org/2000/svg" xmlns:xlink="http://www.w3.org/1999/xlink">
    <!-- Generator: Sketch 51.2 (57519) - http://www.bohemiancoding.com/sketch -->
    <title>Group 2 Copy</title>
    <desc>Created with Sketch.</desc>
    <defs>
        <linearGradient x1="41.8291749%" y1="85.2536623%" x2="51.5326811%" y2="2.34408188%" id="linearGradient-1">
            <stop stop-color="#FFFFFF" offset="0%"></stop>
            <stop stop-color="#BDBDBD" offset="100%"></stop>
        </linearGradient>
    </defs>
    <g id="Page-3" stroke="none" stroke-width="1" fill="none" fill-rule="evenodd">
        <g id="Desktop-HD-Copy-6" transform="translate(-158.000000, -496.000000)">
            <g id="Group-2-Copy" transform="translate(160.000000, 498.000000)">
                <circle id="Oval" stroke="#D62964" stroke-width="3" fill-rule="nonzero" cx="112" cy="112" r="112"></circle>
                <g id="pink-buzz" transform="translate(42.000000, 13.000000)">
                    <path d="M122.137346,128.78577 C111.056494,133.248049 104.487532,130.965793 102.43046,121.939 C101.067192,115.956743 86.3801552,101.94986 93.0034632,97.7560797 C105.161474,90.0578077 105.161474,78.1249194 102.43046,74.5088757 C94.3564478,63.8183495 86.4080655,69.0013266 78.5853131,90.0578077 L68.955057,90.0578077 C67.7472698,82.5850539 66.0578678,77.4020768 63.886851,74.5088757 C61.7158338,71.6156746 57.0554755,68.336657 49.9057757,64.6718234 L52.3329348,44.3333603 C29.8401077,51.2863946 15.0845201,52.2120287 8.06617209,47.1102626 C6.61567626,46.0558704 28.5565507,-31.2285299 118.96623,14.4038047 C136.641848,23.3251917 142.295366,52.3859969 139.192821,79.1782824 C137.404242,94.6237011 130.711896,99.9501491 125.612687,121.939 C124.272823,127.716777 123.114375,129.999034 122.137346,128.78577 Z" id="Path" fill="url(#linearGradient-1)" fill-rule="nonzero"></path>
                    <path d="M122.137346,128.78577 C111.056494,133.248049 104.487532,130.965793 102.43046,121.939 C101.067192,115.956743 86.3801552,101.94986 93.0034632,97.7560797 C105.161474,90.0578077 105.161474,78.1249194 102.43046,74.5088757 C94.3564478,63.8183495 86.4080655,69.0013266 78.5853131,90.0578077 L68.955057,90.0578077 C67.7472698,82.5850539 66.0578678,77.4020768 63.886851,74.5088757 C61.7158338,71.6156746 57.0554755,68.336657 49.9057757,64.6718234 L52.3329348,44.3333603 C29.8401077,51.2863946 15.0845201,52.2120287 8.06617209,47.1102626 C6.61567626,46.0558704 28.5565507,-31.2285299 118.96623,14.4038047 C136.641848,23.3251917 142.295366,52.3859969 139.192821,79.1782824 C137.404242,94.6237011 130.711896,99.9501491 125.612687,121.939 C124.272823,127.716777 123.114375,129.999034 122.137346,128.78577 Z" id="Path" fill="#FFC4D8" fill-rule="nonzero"></path>
                    <path d="M128.877825,152.405608 C116.807392,157.822867 107.653836,163.175101 101.417156,168.462311 C95.1804752,173.749521 86.4066389,183.595417 75.0956469,198 C70.3113729,179.243917 63.8823455,167.023107 55.8085644,161.337572 C47.0801448,155.191041 28.6964191,164.866665 18.1614608,157.240354 C15.3899493,155.234042 19.1851258,145.857096 18.1614608,141.365218 C17.2275662,137.267256 11.3608527,138.184929 11.2632843,133.495914 C11.2390382,132.330677 13.6041918,130.848319 13.5331791,129.71116 C13.4526214,128.421154 9.70176377,128.398472 8.97793854,125.905605 C7.75122846,121.680794 11.2632843,120.056346 8.97793854,114.859273 C6.69259275,109.6622 2.29385753,114.630654 0.551516071,110.639934 C-3.47410041,101.419519 16.0179976,88.4334565 11.2632843,80.7415953 C0.551516071,63.4128042 5.10126628,-2.12302647 75.0956469,2.20471724 C152.793137,7.00874326 149.774623,62.2625942 122.521839,129.71116 C120.564054,134.556529 122.682716,142.121345 128.877825,152.405608 Z" id="Path" stroke="#D62964" stroke-width="3"></path>
                </g>
            </g>
        </g>
    </g>
</svg>