<?xml version="1.0" encoding="UTF-8"?>
<svg width="228px" height="228px" viewBox="0 0 228 228" version="1.1" xmlns="http://www.w3.org/2000/svg" xmlns:xlink="http://www.w3.org/1999/xlink">
    <!-- Generator: Sketch 51.2 (57519) - http://www.bohemiancoding.com/sketch -->
    <title>Group 2 Copy 2</title>
    <desc>Created with Sketch.</desc>
    <defs></defs>
    <g id="Page-3" stroke="none" stroke-width="1" fill="none" fill-rule="evenodd">
        <g id="Desktop-HD-Copy-6" transform="translate(-158.000000, -752.000000)" stroke="#364488" stroke-width="3">
            <g id="Group-2-Copy-2" transform="translate(160.000000, 754.000000)">
                <circle id="Oval" fill-rule="nonzero" cx="112" cy="112" r="112"></circle>
                <g id="pink-buzz" transform="translate(42.000000, 15.000000)">
                    <path d="M128.877825,150.405608 C116.807392,155.822867 107.653836,161.175101 101.417156,166.462311 C95.1804752,171.749521 86.4066389,181.595417 75.0956469,196 C70.3113729,177.243917 63.8823455,165.023107 55.8085644,159.337572 C47.0801448,153.191041 28.6964191,162.866665 18.1614608,155.240354 C15.3899493,153.234042 19.1851258,143.857096 18.1614608,139.365218 C17.2275662,135.267256 11.3608527,136.184929 11.2632843,131.495914 C11.2390382,130.330677 13.6041918,128.848319 13.5331791,127.71116 C13.4526214,126.421154 9.70176377,126.398472 8.97793854,123.905605 C7.75122846,119.680794 11.2632843,118.056346 8.97793854,112.859273 C6.69259275,107.6622 2.29385753,112.630654 0.551516071,108.639934 C-3.47410041,99.4195189 16.0179976,86.4334565 11.2632843,78.7415953 C0.551516071,61.4128042 5.10126628,-4.12302647 75.0956469,0.204717241 C152.793137,5.00874326 149.774623,60.2625942 122.521839,127.71116 C120.564054,132.556529 122.682716,140.121345 128.877825,150.405608 Z" id="Path"></path>
                </g>
            </g>
        </g>
    </g>
</svg>