<?xml version="1.0" encoding="UTF-8"?>
<svg width="228px" height="228px" viewBox="0 0 228 228" version="1.1" xmlns="http://www.w3.org/2000/svg" xmlns:xlink="http://www.w3.org/1999/xlink">
    <!-- Generator: Sketch 51.2 (57519) - http://www.bohemiancoding.com/sketch -->
    <title>Group Copy 2</title>
    <desc>Created with Sketch.</desc>
    <defs></defs>
    <g id="Page-3" stroke="none" stroke-width="1" fill="none" fill-rule="evenodd">
        <g id="Desktop-HD-Copy-6" transform="translate(-1047.000000, -496.000000)" fill-rule="nonzero">
            <g id="Group-Copy-2" transform="translate(1049.000000, 498.000000)">
                <g id="Group-Copy-4" transform="translate(39.000000, 20.000000)">
                    <path d="M30.6581081,30 C11.3317136,33.5570069 1.2731236,51.4991897 0.482338129,83.8265483 C0.0714494561,100.623702 10.3297009,112.294322 13.8166018,137.242211 C14.3111978,140.78092 10.1134413,154.23454 1.22333228,177.603071 C8.63274782,183.661516 15.125361,188.135623 20.7011719,191.025391 C26.2769827,193.915158 35.6402318,197.658648 48.7909191,202.255859 C60.4717506,183.394937 67.131685,170.474497 68.7707221,163.494539 C70.4097593,156.514581 70.4097593,149.155813 68.7707221,141.418236 L30.6581081,30 Z" id="Path-3" fill="#FA77A4"></path>
                    <path d="M117.546152,139.151717 C107.286284,143.767443 99.5057605,148.327765 94.2045822,152.832683 C88.9034038,157.337602 81.445643,165.726707 71.8312998,178 C67.764667,162.019051 62.2999936,151.606423 55.4372798,146.762114 C48.0181231,141.52502 32.3919562,149.769046 23.4372417,143.271118 C21.0814569,141.561658 24.3073569,133.572117 23.4372417,129.744854 C22.6434313,126.253223 17.6567248,127.035118 17.5737917,123.039886 C17.5531825,122.047057 19.563563,120.784026 19.5032022,119.815121 C19.4347282,118.715983 16.2464992,118.696657 15.6312478,116.572633 C14.5885442,112.972921 17.5737917,111.588825 15.6312478,107.160707 C13.6887038,102.732589 9.9497789,106.965915 8.46878866,103.565658 C5.04701465,95.7094881 21.615298,84.6448329 17.5737917,78.0910532 C8.46878866,63.3262157 12.3360763,7.48701316 71.8312998,11.1744274 C137.874166,15.2676537 135.308429,62.3461899 112.143563,119.815121 C110.479446,123.943573 112.280309,130.389105 117.546152,139.151717 Z" id="Path" stroke="#D62964" stroke-width="3" fill="#FFFFFF"></path>
                    <path d="M16.2190493,19.7393568 C13.7168086,27.2689795 12.6733546,36.4552176 13.0886874,47.298071 C13.855722,67.3226001 35.4823708,106.980555 48.2177107,114.728884 C75.464303,131.306026 78.847794,157.393349 64.9586692,181.213471 C55.6992526,197.093553 53.2761806,204.407812 57.6894531,203.15625 C68.1230469,204.915365 81.9986979,204.030599 99.3164063,200.501953 C116.634115,196.973307 131.754305,189.295573 144.676978,177.46875 C139.098392,151.535753 136.340324,134.956263 136.402773,127.73028 C136.693779,94.0580091 146.510228,92.2069188 144.676978,77.6373846 C140.974348,48.2111818 127.777273,31.2733262 121.660021,19.7393568 C107.701183,-6.5797856 72.5541922,-6.5797856 16.2190493,19.7393568 Z" id="Path" fill="#FFC4D8"></path>
                    <path d="M117.546152,139.151717 C107.286284,143.767443 99.5057605,148.327765 94.2045822,152.832683 C88.9034038,157.337602 81.445643,165.726707 71.8312998,178 C67.764667,162.019051 62.2999936,151.606423 55.4372798,146.762114 C48.0181231,141.52502 32.3919562,149.769046 23.4372417,143.271118 C21.0814569,141.561658 24.3073569,133.572117 23.4372417,129.744854 C22.6434313,126.253223 17.6567248,127.035118 17.5737917,123.039886 C17.5531825,122.047057 19.563563,120.784026 19.5032022,119.815121 C19.4347282,118.715983 16.2464992,118.696657 15.6312478,116.572633 C14.5885442,112.972921 17.5737917,111.588825 15.6312478,107.160707 C13.6887038,102.732589 9.9497789,106.965915 8.46878866,103.565658 C5.04701465,95.7094881 21.615298,84.6448329 17.5737917,78.0910532 C8.46878866,63.3262157 12.3360763,7.48701316 71.8312998,11.1744274 C137.874166,15.2676537 135.308429,62.3461899 112.143563,119.815121 C110.479446,123.943573 112.280309,130.389105 117.546152,139.151717 Z" id="Path" stroke-opacity="0.147220335" stroke="#979797" stroke-width="3"></path>
                </g>
                <circle id="Oval-Copy-3" stroke="#D62964" stroke-width="3" cx="112" cy="112" r="112"></circle>
            </g>
        </g>
    </g>
</svg>