<?xml version="1.0" encoding="UTF-8"?>
<svg width="228px" height="228px" viewBox="0 0 228 228" version="1.1" xmlns="http://www.w3.org/2000/svg" xmlns:xlink="http://www.w3.org/1999/xlink">
    <!-- Generator: Sketch 51.2 (57519) - http://www.bohemiancoding.com/sketch -->
    <title>Group 4</title>
    <desc>Created with Sketch.</desc>
    <defs></defs>
    <g id="Page-3" stroke="none" stroke-width="1" fill="none" fill-rule="evenodd">
        <g id="Desktop-HD-Copy-6" transform="translate(-747.000000, -137.000000)" fill-rule="nonzero">
            <g id="Group-4" transform="translate(749.000000, 139.000000)">
                <circle id="Oval-Copy-2" stroke="#979797" stroke-width="3" cx="112" cy="112" r="112"></circle>
                <g id="Group-Copy-5" transform="translate(38.000000, 20.000000)">
                    <path d="M13.2405242,91 C4.41350806,91 0,82.6666667 0,66 C0,49.3333333 4.41350806,41 13.2405242,41 L18,66 L13.2405242,91 Z" id="Path-5" fill="#787878"></path>
                    <path d="M115.466708,143.151717 C105.120622,147.767443 97.2747165,152.327765 91.9289904,156.832683 C86.5832643,161.337602 79.0628333,169.726707 69.3676973,182 C65.2668911,166.019051 59.7562961,155.606423 52.8359124,150.762114 C45.3544099,145.52502 29.5969306,153.769046 20.5669664,147.271118 C18.1913851,145.561658 21.4443935,137.572117 20.5669664,133.744854 C19.7664853,130.253223 14.7378737,131.035118 14.6542437,127.039886 C14.6334614,126.047057 16.6607358,124.784026 16.5998678,123.815121 C16.5308184,122.715983 13.3157975,122.696657 12.6953759,120.572633 C11.6439101,116.972921 14.6542437,115.588825 12.6953759,111.160707 C10.7365081,106.732589 6.96616359,110.965915 5.47272806,107.565658 C2.02219965,99.7094881 18.7297122,88.6448329 14.6542437,82.0910532 C5.47272806,67.3262157 9.37251394,11.4870132 69.3676973,15.1744274 C135.965546,19.2676537 133.378248,66.3461899 110.018719,123.815121 C108.340618,127.943573 110.156614,134.389105 115.466708,143.151717 Z" id="Path" stroke="#979797" stroke-width="3" fill="#FFFFFF"></path>
                    <path d="M3,42.1388858 C3.85552135,45.0817327 8.62054246,50.8737282 17.2950633,59.5148723 C30.3068447,72.4765884 23.9116782,98.4891551 33.5063199,116.257112 C37.5850895,123.810432 51.1492653,132.306547 49.6444643,143.902791 C46.9370006,164.766952 39.1103732,176.33905 26.164582,178.619086 C28.180022,183.163867 37.4845335,184.172565 54.0781164,181.64518 C63.5670876,180.199906 74.4517011,166.823208 89.4207509,162.956697 C96.8925329,161.026733 110.084366,161.026733 128.996252,162.956697 C146.800504,126.449709 152.094406,94.4838189 144.877958,67.0590257 C136.204833,34.0983936 128.996252,5.44087158 98.6518229,1.00471804 C68.307394,-3.43143551 75.9327743,8.17111973 47.0004232,9.66702459 C23.2742555,10.8937514 8.60744775,21.7177051 3,42.1388858 Z" id="Combined-Shape" fill="#D8D8D8"></path>
                    <path d="M3,42.1388858 C3.85552135,45.0817327 8.62054246,50.8737282 17.2950633,59.5148723 C30.3068447,72.4765884 23.9116782,98.4891551 33.5063199,116.257112 C37.5850895,123.810432 51.1492653,132.306547 49.6444643,143.902791 C46.9370006,164.766952 39.1103732,176.33905 26.164582,178.619086 C28.180022,183.163867 37.4845335,184.172565 54.0781164,181.64518 C63.5670876,180.199906 74.4517011,166.823208 89.4207509,162.956697 C96.8925329,161.026733 110.084366,161.026733 128.996252,162.956697 C146.800504,126.449709 152.094406,94.4838189 144.877958,67.0590257 C136.204833,34.0983936 128.996252,5.44087158 98.6518229,1.00471804 C68.307394,-3.43143551 75.9327743,8.17111973 47.0004232,9.66702459 C23.2742555,10.8937514 8.60744775,21.7177051 3,42.1388858 Z" id="Combined-Shape" fill="#B9B9B9"></path>
                    <path d="M115.466708,143.151717 C105.120622,147.767443 97.2747165,152.327765 91.9289904,156.832683 C86.5832643,161.337602 79.0628333,169.726707 69.3676973,182 C65.2668911,166.019051 59.7562961,155.606423 52.8359124,150.762114 C45.3544099,145.52502 29.5969306,153.769046 20.5669664,147.271118 C18.1913851,145.561658 21.4443935,137.572117 20.5669664,133.744854 C19.7664853,130.253223 14.7378737,131.035118 14.6542437,127.039886 C14.6334614,126.047057 16.6607358,124.784026 16.5998678,123.815121 C16.5308184,122.715983 13.3157975,122.696657 12.6953759,120.572633 C11.6439101,116.972921 14.6542437,115.588825 12.6953759,111.160707 C10.7365081,106.732589 6.96616359,110.965915 5.47272806,107.565658 C2.02219965,99.7094881 18.7297122,88.6448329 14.6542437,82.0910532 C5.47272806,67.3262157 9.37251394,11.4870132 69.3676973,15.1744274 C135.965546,19.2676537 133.378248,66.3461899 110.018719,123.815121 C108.340618,127.943573 110.156614,134.389105 115.466708,143.151717 Z" id="Path" stroke-opacity="0.410184556" stroke="#979797" stroke-width="3"></path>
                </g>
            </g>
        </g>
    </g>
</svg>