<?xml version="1.0" encoding="UTF-8"?>
<svg width="228px" height="228px" viewBox="0 0 228 228" version="1.1" xmlns="http://www.w3.org/2000/svg" xmlns:xlink="http://www.w3.org/1999/xlink">
    <!-- Generator: Sketch 51.2 (57519) - http://www.bohemiancoding.com/sketch -->
    <title>Group 3 Copy</title>
    <desc>Created with Sketch.</desc>
    <defs></defs>
    <g id="Page-3" stroke="none" stroke-width="1" fill="none" fill-rule="evenodd">
        <g id="Desktop-HD-Copy-6" transform="translate(-447.000000, -496.000000)" fill-rule="nonzero">
            <g id="Group-3-Copy" transform="translate(449.000000, 498.000000)">
                <circle id="Oval-Copy" stroke="#D62964" stroke-width="3" cx="112" cy="112" r="112"></circle>
                <g id="Group-Copy" transform="translate(46.000000, 15.000000)">
                    <path d="M110.880405,131.016874 C100.932091,135.013416 95.0345205,132.969363 93.1876947,124.884713 C91.963762,119.526835 78.7778394,106.981876 84.7242007,103.225809 C95.6395811,96.3310195 95.6395811,85.6435887 93.1876947,82.404958 C85.9389012,72.8302215 78.8028971,77.472242 71.7796826,96.3310195 L63.1337035,96.3310195 C62.0493602,89.6382108 60.5326264,84.9961903 58.583502,82.404958 C56.6343776,79.8137256 52.4503391,76.8769453 46.0313866,73.5946169 L48.2104739,55.3789166 C45.5068527,50.4064407 41.636394,47.2704755 36.5990977,45.971021 C31.5618014,44.6715665 23.2757854,44.6715665 11.7410499,45.971021 C9.52226068,26.3439266 12.2859555,13.5962597 20.0321343,7.72802022 C31.2575469,-0.775967461 46.7646105,-4.23213594 77.2935201,7.72802022 C86.4292824,11.3070915 103.595078,18.9460709 114.000543,24.1853391 C129.869594,32.1755845 133.977687,63.6950151 131.192243,87.6909409 C129.58647,101.524293 122.965659,108.222738 114.000543,124.884713 C111.523313,129.488731 110.483267,131.532784 110.880405,131.016874 Z" id="Path" fill="#FFC4D8"></path>
                    <path d="M116.910599,152.825473 C105.960992,157.717589 97.6574083,162.550984 91.9998482,167.325658 C86.3422881,172.100332 78.3831652,180.991779 68.1224796,194 C63.7824597,177.062108 57.9504134,166.025969 50.6263406,160.891582 C42.7084171,155.340889 26.0317516,164.07857 16.4750394,157.191544 C13.9608826,155.379722 17.4036498,146.911765 16.4750394,142.855324 C15.6278637,139.154614 10.3059163,139.983328 10.2174079,135.748861 C10.1954133,134.696581 12.3409454,133.35792 12.2765267,132.330996 C12.2034494,131.166042 8.8008857,131.145558 8.14427282,128.894347 C7.03147152,125.079084 10.2174079,123.612108 8.14427282,118.918833 C6.07113771,114.225558 2.08085647,118.712377 0.500303864,115.108511 C-3.15150537,106.781913 14.5306121,95.0547031 10.2174079,88.1084815 C0.500303864,72.459522 4.62757726,13.2766547 68.1224796,17.1848722 C138.605203,21.5232018 135.866979,71.420812 111.144811,132.330996 C109.368821,136.706661 111.29075,143.538153 116.910599,152.825473 Z" id="Path" stroke="#D62964" stroke-width="3"></path>
                </g>
            </g>
        </g>
    </g>
</svg>